<svg xmlns="http://www.w3.org/2000/svg" xmlns:xlink="http://www.w3.org/1999/xlink" zoomAndPan="magnify" preserveAspectRatio="xMidYMid meet" version="1.0" viewBox="73.66 318.07 1298.02 195.63"><defs><g/><clipPath id="2dba99438b"><path d="M 572.480469 321.21875 L 738 321.21875 L 738 513.21875 L 572.480469 513.21875 Z M 572.480469 321.21875 " clip-rule="nonzero"/></clipPath></defs><g fill="#ffffff" fill-opacity="1"><g transform="translate(46.930203, 510.749994)"><g><path d="M 26.726562 0 L 140.839844 0 L 140.839844 -7.214844 L 44.898438 -7.214844 L 44.898438 -93.535156 L 117.320312 -93.535156 L 117.320312 -100.753906 L 44.898438 -100.753906 L 44.898438 -184.667969 L 135.226562 -184.667969 L 135.226562 -191.882812 L 26.726562 -191.882812 Z M 26.726562 0 "/></g></g></g><g fill="#ffffff" fill-opacity="1"><g transform="translate(229.459937, 510.749994)"><g><path d="M 26.726562 0 L 33.941406 0 L 33.941406 -179.589844 L 139.503906 -0.265625 L 139.503906 0 L 146.71875 0 L 146.71875 -191.882812 L 139.503906 -191.882812 L 139.503906 -35.8125 L 47.570312 -191.882812 L 26.726562 -191.882812 Z M 26.726562 0 "/></g></g></g><g fill="#ffffff" fill-opacity="1"><g transform="translate(417.869137, 510.749994)"><g><path d="M 75.363281 0 L 93.535156 0 L 93.535156 -184.667969 L 142.175781 -184.667969 L 142.175781 -191.882812 L 26.726562 -191.882812 L 26.726562 -184.667969 L 75.363281 -184.667969 Z M 75.363281 0 "/></g></g></g><g fill="#ffffff" fill-opacity="1"><g transform="translate(601.735123, 510.749994)"><g/></g></g><g fill="#ffffff" fill-opacity="1"><g transform="translate(758.34188, 510.749994)"><g><path d="M 26.726562 0 L 140.570312 0 L 140.570312 -7.214844 L 44.898438 -7.214844 L 44.898438 -191.882812 L 26.726562 -191.882812 Z M 26.726562 0 "/></g></g></g><g fill="#ffffff" fill-opacity="1"><g transform="translate(940.604411, 510.749994)"><g><path d="M 26.726562 0 L 44.898438 0 L 44.898438 -93.003906 L 96.210938 -93.003906 C 119.460938 -93.003906 145.117188 -114.648438 145.117188 -142.976562 C 145.117188 -172.105469 122.398438 -191.882812 93.535156 -191.882812 L 26.726562 -191.882812 Z M 44.898438 -100.21875 L 44.898438 -184.667969 L 90.328125 -184.667969 C 110.375 -184.667969 126.941406 -163.289062 126.941406 -142.976562 C 126.941406 -122.667969 110.375 -100.21875 90.328125 -100.21875 Z M 44.898438 -100.21875 "/></g></g></g><g fill="#ffffff" fill-opacity="1"><g transform="translate(1116.720182, 510.749994)"><g><path d="M 26.726562 0 L 44.898438 0 L 44.898438 -191.882812 L 26.726562 -191.882812 Z M 26.726562 0 "/></g></g></g><g fill="#ffffff" fill-opacity="1"><g transform="translate(1203.575524, 510.749994)"><g><path d="M 101.820312 2.941406 C 129.082031 2.671875 153.933594 -14.964844 168.097656 -44.628906 L 161.417969 -47.570312 C 149.660156 -22.714844 127.210938 -4.277344 101.820312 -4.277344 C 65.742188 -4.277344 39.285156 -50.777344 39.285156 -94.871094 C 39.285156 -138.703125 65.742188 -185.46875 101.820312 -185.46875 C 119.726562 -185.46875 136.832031 -176.117188 149.925781 -160.347656 L 155.539062 -164.890625 C 141.105469 -182.53125 121.332031 -192.152344 101.820312 -192.683594 C 55.855469 -192.683594 21.378906 -148.855469 21.378906 -94.871094 C 21.378906 -40.890625 55.855469 2.941406 101.820312 2.941406 Z M 101.820312 2.941406 "/></g></g></g><g clip-path="url(#2dba99438b)"><path fill="#ffffff" d="M 696.617188 417.375 L 655.238281 321.246094 L 613.855469 417.375 L 572.480469 513.511719 L 737.996094 513.511719 L 696.613281 417.378906 Z M 648.019531 509.199219 L 579.398438 509.199219 L 648.023438 349.769531 L 716.648438 509.199219 Z M 648.019531 509.199219 " fill-opacity="1" fill-rule="nonzero"/></g></svg>